<?xml version="1.0" encoding="UTF-8"?>
<!DOCTYPE svg PUBLIC "-//W3C//DTD SVG 1.1//EN" "http://www.w3.org/Graphics/SVG/1.1/DTD/svg11.dtd">
<!-- Creator: CorelDRAW 2017 -->
<svg xmlns="http://www.w3.org/2000/svg" xml:space="preserve" width="230mm" height="55mm" version="1.1" style="shape-rendering:geometricPrecision; text-rendering:geometricPrecision; image-rendering:optimizeQuality; fill-rule:evenodd; clip-rule:evenodd"
viewBox="0 0 23000 5500"
 xmlns:xlink="http://www.w3.org/1999/xlink">
 <defs>
  <style type="text/css">
   <![CDATA[
    .fil0 {fill:#00A0E3}
    .fil1 {fill:#1F1B20}
   ]]>
  </style>
 </defs>
 <g id="Слой_x0020_1">
  <metadata id="CorelCorpID_0Corel-Layer"/>
  <g id="_3045275375872">
   <path class="fil0" d="M6059.86 3313.41c0,360.04 446.77,577.57 719.09,305.17 221.97,-222.02 139.49,-545.29 -96.11,-670.87 -305.3,-162.72 -622.98,92.37 -622.98,365.7z"/>
   <path class="fil0" d="M17257.89 561.44c0,405.44 470.77,553.83 719.25,305.34 265.91,-265.9 61.98,-676.33 -245.73,-719.25l-105.65 0c-41.71,5.72 -84.46,18.31 -127.49,39.01 -16.02,7.7 -50.74,28.47 -63.05,37.64 -12.33,9.17 -45.16,35.02 -55.9,44.78 -73.34,66.58 -121.43,182.84 -121.43,292.48z"/>
   <g>
    <path class="fil1" d="M12704.85 5349.41l660.02 0c56.06,0 33.56,-184.74 33.56,-290.85l0 -2282.12c36.58,9.76 290.38,214.98 327.61,242.93l808.55 623.36c55.37,41.64 121.82,106.3 172.7,118.16 25.32,-16.96 45.88,-37.48 75.11,-59.15l1126.78 -864.47c39.18,-29.66 41.45,-38 84.6,-60.83l-0.04 2438.77c-0.32,54.83 -17.39,134.2 33.6,134.2l660.03 0c54.25,0 33.56,-105.53 33.56,-212.55l0 -3837.09c-49.08,13.11 -453.57,340.37 -504.96,378.82l-1519.86 1164.97 -1132.44 -870.01c-44.24,-36.35 -80.87,-60.76 -126.95,-96.78 -68.51,-53.52 -711.66,-562.64 -765.43,-577l0 3825.91c0,105.92 -20.83,223.73 33.56,223.73z"/>
    <path class="fil1" d="M5187.29 3324.59c0,-377.84 141.44,-637.1 361.18,-902.93 30.61,-37.02 50.74,-42.3 83.58,-73.03 34.61,-32.38 44.26,-43.05 84.07,-72.55 61.04,-45.25 123.23,-83.21 194.46,-118.78 347.57,-173.55 793.23,-177.64 1141.23,-3.63 143.88,71.94 171.46,98.99 281.79,188.05 98.01,79.12 148.17,145.15 222.24,247.6 298.52,413 294.4,1018.21 9.32,1446.31 -87.02,130.67 -187.46,234.11 -313.01,324.64 -56.42,40.69 -129.37,89.79 -192.62,120.61 -497.74,242.47 -1112.84,143.52 -1490.76,-251.28 -122.43,-127.91 -187.67,-215.16 -266.02,-382.81 -58.74,-125.68 -115.46,-343.43 -115.46,-522.2zm-727.15 -44.74c0,512.48 159.67,968.53 473.15,1339.12 313.99,371.2 816.31,668.19 1294.65,707.8 70.73,5.85 173.29,11.94 238.15,20.03 25.4,3.17 187.96,-9.57 225.1,-14.9l212.55 -33.56c142.31,-28.12 265.8,-65.68 382.93,-120.47 205.38,-96.06 443.8,-238.51 605.13,-401.68 262.57,-265.57 458.36,-576.26 553.25,-945.8 186.84,-727.71 -22.57,-1436.87 -547.75,-1962.89 -153.57,-153.81 -377.54,-312.92 -594.09,-401.53 -153.01,-62.62 -204.46,-86.04 -377.48,-125.93 -137.14,-31.61 -197.57,-36.48 -329.23,-39.94 -57.27,-1.5 -64.62,-15.39 -121.69,-11.37 -455.85,32.13 -737.14,96.32 -1137.69,362.24 -52.65,34.97 -93.26,67.62 -140.24,105.88 -49.2,40.07 -90.08,76.42 -135.45,121.84 -348.05,348.52 -601.29,864.5 -601.29,1401.16z"/>
    <path class="fil1" d="M500 2340.15l0 2975.7c0,25.78 7.78,33.56 33.56,33.56l660.03 0c25.77,0 33.56,-7.78 33.56,-33.56l0 -1823.46 2595.34 0 0 -738.32 -2595.34 0c0,-222.25 -33.12,-467.75 92.09,-601.5 60.64,-64.77 133.03,-125.65 254.7,-125.65l2975.7 0 0 -704.77c0,-25.78 -7.79,-33.56 -33.56,-33.56l-2819.09 0c-188.01,0 -347.99,17.95 -487.56,71.78 -255.2,98.4 -466.9,281.28 -590.24,528.45 -54.7,109.64 -119.19,293.61 -119.19,451.33z"/>
    <path class="fil1" d="M20009.86 3335.78l-1499.11 1946.43c-21.87,27.41 -35.4,32.44 -44.68,67.2 285.59,0 577.67,6.16 862.33,0.95 77.7,-1.42 58.71,-7.62 121.99,-90.56l375.64 -485.75c19.09,-24.27 27.58,-32.53 44.92,-55.76l515.74 -670.07c31.7,-39.05 67.08,-94.68 104.2,-119.53l816.52 1062.87c22.93,30 44.78,55.51 68.87,87.74 32.95,44.14 190.82,236.73 199.73,270.11l917.32 0c-13.2,-56.69 -139.39,-201.06 -182.47,-253.82l-976.3 -1261.06c-20.07,-26.85 -25.82,-39.78 -46.74,-65.13l-338.27 -444.81 393.08 -513.05c67.7,-84.63 125.2,-166.83 193.35,-254.12 35.84,-45.9 65.96,-77.86 98.15,-125.59l496.33 -644.74c66.4,-88.06 131.16,-166.86 195.07,-252.39l148.1 -188.82c17.14,-20.73 50.93,-57.29 -2.67,-57.29l-861.39 0c-37.72,0 -123.33,130.78 -148.59,164.63l-140.72 183.7c-47.84,59.81 -89.49,116.1 -137.33,175.91 -92.02,115.04 -672.14,884.9 -703.23,907.68 -40.4,-27.06 -306.67,-382.88 -351.69,-442.58l-345.11 -449.14c-48.96,-65.61 -92.46,-119.4 -140.59,-183.84 -47.78,-63.99 -92.07,-117.76 -142.33,-182.1 -22.71,-29.06 -113.84,-174.26 -150.15,-174.26l-861.39 0c-60.39,0 -9.65,47.34 43.21,113.41l297.12 385.28c68.14,87.22 129.86,165.18 195.02,252.45l444.44 573.57c78,104.39 526.95,667.54 541.63,722.48z"/>
    <path class="fil1" d="M8241.29 5349.41l749.52 0c35.57,0 57.22,-68.24 91.42,-132.32l555.83 -1088.64c53.6,-102.41 101.63,-198.19 154.48,-304.18l356.29 -695.27c34.65,-64.27 93.72,-204.05 128.47,-229.5l230.15 463.43c149.8,268.85 316.56,638.12 467.22,919.95 29.7,55.53 54.54,94.44 80.95,153.97 46.41,104.57 105.35,207.58 157.65,312.2l238.65 466.12c18.64,37.31 53.5,134.24 100.69,134.24l771.88 0c-1.1,-49.64 -0.43,-35.84 -23.43,-77.25l-223.24 -436.78c-95.28,-171.8 -210.28,-430.85 -288.26,-561.94l-1255.02 -2459.01c-43.86,-83.63 -82.79,-165.77 -126.73,-253.63 -22.99,-45.99 -42.05,-83.91 -63.38,-126.79 -18.29,-36.79 -58.92,-99.01 -67.13,-134.24l-22.38 0c-13.53,58.14 -204.19,414.97 -253.5,507.2 -45.91,85.85 -84.71,169.24 -126.85,253.51 -21.39,42.79 -39.79,81.11 -63.26,126.91 -14.14,27.57 -24.81,43.09 -35.35,65.33l-614.88 1208.58c-208.21,375.18 -431.18,860.8 -647.51,1265.44l-257.38 503.32c-17.36,34.85 -81.01,119.35 -14.9,119.35z"/>
    <path class="fil1" d="M17291.45 1322.15l0 3993.7c0,25.78 7.79,33.56 33.56,33.56l660.03 0c25.77,0 33.56,-7.78 33.56,-33.56l0 -4027.26 -693.59 0c-25.77,0 -33.56,7.78 -33.56,33.56z"/>
   </g>
  </g>
 </g>
</svg>
